<svg xmlns="http://www.w3.org/2000/svg" width="72" height="66" viewBox="0 0 72 66" fill="none">
<g clip-path="url(#clip0)">
<path d="M0 17L12.5 45L33.3 65.5999L12.6 1.69995L0 17Z" fill="#E2E4E8"/>
<path d="M20.2998 0L27.4998 22.4L31.9998 24L37.2998 7.2L20.2998 0Z" fill="#E2E4E8"/>
<path d="M72.1002 21.1L62.1002 35L39.2002 26.7L45.7002 6.69995L63.4002 2.19995L72.1002 21.1Z" fill="#E2E4E8"/>
<path d="M57.4001 41.6L41.1001 64L30.6001 31.9L57.4001 41.6Z" fill="#E2E4E8"/>
<path d="M29.6001 9.39995L32.0001 24L37.3001 7.19995L29.6001 9.39995Z" fill="#CACED6"/>
<path d="M27.4998 22.4L31.9998 24L29.5998 9.4L20.2998 0L27.4998 22.4Z" fill="#F2F3F4"/>
<path d="M21.8 30L12.5 45L0 17L21.8 30Z" fill="#CACED6"/>
<path d="M45.7002 6.69995L54.0002 19.5L39.2002 26.7L45.7002 6.69995Z" fill="#F2F3F4"/>
<path d="M63.4002 2.19995L54.0002 19.5L45.7002 6.69995L63.4002 2.19995Z" fill="#F7F8F9"/>
<path d="M62.1 35L54 19.5L72.1 21.1L62.1 35Z" fill="#CACED6"/>
<path d="M41.7001 44.3L41.1001 64L30.6001 31.9L41.7001 44.3Z" fill="#F2F3F4"/>
<path d="M41.1001 64L41.7001 44.3L57.4001 41.6L41.1001 64Z" fill="#CACED6"/>
<path d="M33.3 65.6L12.5 45L27.5 47.8L33.3 65.6Z" fill="#CACED6"/>
<path d="M12.6 1.69995L0 17L21.8 30L12.6 1.69995Z" fill="#E2E4E8"/>
<path d="M27.5 47.8L12.5 45L21.8 30L27.5 47.8Z" fill="#E2E4E8"/>
<path d="M54.0002 19.5L62.1002 35L39.2002 26.7L54.0002 19.5Z" fill="#E2E4E8"/>
<path d="M63.4 2.19995L72.1 21.1L54 19.5L63.4 2.19995Z" fill="#E2E4E8"/>
<path d="M57.4001 41.6L41.7001 44.3L30.6001 31.9L57.4001 41.6Z" fill="#E2E4E8"/>
<path d="M37.2998 7.2L29.5998 9.4L20.2998 0L37.2998 7.2Z" fill="#E2E4E8"/>
</g>


</svg>