<svg xmlns="http://www.w3.org/2000/svg" width="35" height="46" viewBox="0 0 35 46" fill="none">
  <path fill-rule="evenodd" clip-rule="evenodd" d="M0.247803 3.80758V31.4918C0.248126 32.0089 0.364616 32.5193 0.588669 32.9853C0.812721 33.4513 1.13861 33.8611 1.54226 34.1843L14.5947 44.6608C15.0539 45.0284 15.6246 45.2287 16.2128 45.2287C16.801 45.2287 17.3717 45.0284 17.8309 44.6608L30.8834 34.1843C31.287 33.8611 31.6129 33.4513 31.837 32.9853C32.061 32.5193 32.1775 32.0089 32.1778 31.4918V3.80758C32.1778 2.89208 31.8141 2.01407 31.1668 1.36672C30.5194 0.719363 29.6414 0.355682 28.7259 0.355682H3.6997C2.7842 0.355682 1.90619 0.719363 1.25884 1.36672C0.611483 2.01407 0.247803 2.89208 0.247803 3.80758V3.80758Z" fill="#1273EA"/>
  <path d="M27 15.8892V8.98543C27 8.06993 26.6363 7.19193 25.989 6.54458C25.3416 5.89722 24.4636 5.53354 23.5481 5.53354H8.87755C7.96206 5.53354 7.08405 5.89722 6.4367 6.54458C5.78934 7.19193 5.42566 8.06993 5.42566 8.98543V29.0172C5.42598 29.5343 5.54247 30.0447 5.76652 30.5107C5.99058 30.9768 6.31647 31.3865 6.72012 31.7097L12.0619 35.9987C12.1253 36.0501 12.202 36.0825 12.2831 36.0921C12.3642 36.1017 12.4464 36.0881 12.52 36.0528C12.5937 36.0176 12.6558 35.9621 12.6992 35.893C12.7426 35.8238 12.7655 35.7438 12.7653 35.6621V21.4986C12.7653 21.3841 12.8107 21.2744 12.8916 21.1934C12.9726 21.1125 13.0823 21.0671 13.1967 21.0671H17.0801C17.7667 21.0671 18.4252 21.3398 18.9108 21.8253C19.3963 22.3109 19.669 22.9694 19.669 23.656V35.6621C19.6691 35.7434 19.6921 35.823 19.7354 35.8918C19.7787 35.9605 19.8405 36.0157 19.9138 36.0508C19.9871 36.086 20.0688 36.0998 20.1495 36.0905C20.2303 36.0813 20.3068 36.0495 20.3702 35.9987L25.712 31.7097C26.1157 31.3865 26.4416 30.9768 26.6656 30.5107C26.8897 30.0447 27.0062 29.5343 27.0065 29.0172V22.793C27.0065 21.8775 26.6428 20.9995 25.9954 20.3522C25.3481 19.7048 24.4701 19.3411 23.5546 19.3411C24.469 19.3394 25.3453 18.975 25.9913 18.3278C26.6372 17.6806 27 16.8036 27 15.8892V15.8892ZM17.0758 17.6152H13.1924C13.078 17.6152 12.9682 17.5697 12.8873 17.4888C12.8064 17.4079 12.7609 17.2981 12.7609 17.1837V9.41692C12.7609 9.30248 12.8064 9.19273 12.8873 9.11181C12.9682 9.03089 13.078 8.98543 13.1924 8.98543H19.2332C19.3477 8.98543 19.4574 9.03089 19.5383 9.11181C19.6193 9.19273 19.6647 9.30248 19.6647 9.41692V15.0263C19.6647 15.7129 19.392 16.3714 18.9064 16.8569C18.4209 17.3424 17.7624 17.6152 17.0758 17.6152V17.6152Z" fill="white"/>
  
</svg>