<svg xmlns="http://www.w3.org/2000/svg" viewBox="0 0 40 58"><path d="m36.0759 12.5612c-4.8093 1.3701-11.9058 4.2358-18.4062 10.1099-6.5326 6.1482-2.0977 11.6314-2.0518 11.6858 0 0-2.3941-4.4153 3.3962-9.8554.0735-.0643 7.465-6.4478 18.2147-9.5099 1.3707-.3905 2.7562-.7155 4.1184-.9659l.0946-.0173 1.7306-2.8049-.4248.03c-.0269.0023-2.7277.2041-6.6717 1.3277z" fill="#5928b1"/><path d="m43.4743 4.70028c-1.1073-.932-2.2134-1.66954-2.2244-1.67689l-.0668-.0435-.0785.00927c-.0298.00384-3.0139.37101-7.1237 1.54192-7.3532 2.09428-17.2423 6.38962-22.597 14.95322-2.54354 3.8901-.4964 8.5447-.4964 8.5447l-.0617-1.1847c-.0067-.1257-.358-12.6747 25.3649-20.00305 2.2517-.64159 4.6698-1.23265 7.1886-1.75845l.441-.09179z" fill="#764bc4"/><path d="m45.0292 6.33881c-.0332.00351-3.4172.36365-8.1316 1.70631-4.9894 1.42166-12.2546 4.17828-18.528 9.23548-3.6992 2.8738-6.0405 6.3408-6.4238 9.5126-.188 1.5479 1.6261 4.8336 1.6261 4.8336l-.3814-1.1671c-.0174-.0531-1.6385-5.369 6.5763-11.537 4.603-3.4568 9.4-5.8226 15.0951-7.4448 2.936-.8364 5.7492-1.3858 8.859-1.96698l.1095-.02047.0475-.10139c.2349-.50373 1.3552-2.70963 1.3669-2.7317l.1817-.35917z" fill="#764bc4"/><path d="m9.07686 22.4783c.3099-4.9808 4.08194-9.5829 11.21984-13.68286 3.7616-2.34854 7.9663-4.19367 12.4971-5.48452 3.8427-1.09479 7.0908-1.42166 7.0908-1.42166l-2.6122-1.88926c-.024.00287851-2.4317.298725-5.8723 1.27902-22.06209 6.28506-24.79614 17.11398-24.55208 21.46698.42734 7.5893 9.36418 12.9865 9.36418 12.9865s-7.59656-5.8328-7.13534-13.2542z" fill="#bba5e1"/><path d="m9.35057 45.4388c4.80933-1.3701 11.90583-4.2358 18.40623-10.1099 6.5326-6.1482 2.0978-11.6314 2.0519-11.6858 0 0 2.394 4.4153-3.3963 9.8554-.0735.0643-7.4649 6.4478-18.21471 9.5099-1.37067.3905-2.75622.7155-4.11834.9659l-.09465.0173-1.73058 2.8049.42481-.03c.0269-.0023 2.72772-.2041 6.67164-1.3277z" fill="#5928b1"/><path d="m1.95225 53.2997c1.1073.932 2.21333 1.6696 2.22441 1.6769l.06679.0435.07851-.0093c.02975-.0038 3.01388-.371 7.12364-1.5419 7.3532-2.0943 17.2423-6.3896 22.5971-14.9532 2.5435-3.8901.4963-8.5447.4963-8.5447l.0617 1.1847c.0067.1257.3581 12.6747-25.36491 20.0031-2.25163.6415-4.66977 1.2326-7.18857 1.7584l-.44096.0918z" fill="#764bc4"/><path d="m.397293 51.6612c.033238-.0035 3.417177-.3636 8.131577-1.7063 4.98953-1.4217 12.25463-4.1783 18.52803-9.2355 3.6993-2.8737 6.0405-6.3407 6.4238-9.5125.188-1.548-1.6261-4.8337-1.6261-4.8337l.3814 1.1671c.0174.0531 1.6385 5.3691-6.5763 11.5371-4.603 3.4567-9.4 5.8225-15.0951 7.4447-2.936.8364-5.7492 1.3859-8.859 1.967l-.10953.0205-.04748.1014c-.23488.5037-1.355156 2.7096-1.366868 2.7317l-.18169987.3591z" fill="#764bc4"/><path d="m36.3497 35.5217c-.3099 4.9808-4.082 9.5829-11.2199 13.6829-3.7616 2.3485-7.9663 4.1936-12.4971 5.4845-3.84264 1.0948-7.09078 1.4216-7.09078 1.4216l2.61219 1.8893c.02405-.0029 2.43179-.2987 5.87229-1.279 22.0621-6.2851 24.7962-17.114 24.5521-21.467-.4273-7.5893-9.3642-12.9865-9.3642-12.9865s7.5966 5.8328 7.1354 13.2542z" fill="#bba5e1"/></svg>