<svg xmlns="http://www.w3.org/2000/svg" viewBox="0 0 85 85"><defs><style>.cls-1,.cls-2{fill:#1f5eff;}.cls-2{fill-rule:evenodd;}</style></defs><g id="Layer_4" data-name="Layer 4"><path class="cls-2" d="M61,61.6a28.18,28.18,0,0,1-5,3.45c.34-.27-.73-1.39-.4-1.68,8.08-7,9.92-16.07,6.66-24-.44-1.07.49-1.5.49-2.49C70.27,43.89,69.47,54.28,61,61.6Z"/><path class="cls-2" d="M62.83,36.85A26.88,26.88,0,0,0,51.3,30.78h0c1.64.43,1.76,2.32,2.89,3.28,2.41,2,3.06,4.65,3.31,8.11.37,5.14.34,10.22-3.41,14.75a20.29,20.29,0,0,1-7.4,5.8L46,63a.29.29,0,0,1-.1,0,25,25,0,0,1-4.72,1.36c-6.08,1.15-14.14.67-23.88-2.43a35.2,35.2,0,0,0,25.92,7.15h0c.66-.07,1.3-.17,1.94-.28a35.41,35.41,0,0,0,7.28-2.09h0a31.68,31.68,0,0,0,3.57-1.7c.34-.27.68-.55,1-.84C66.25,56.24,68.33,45.42,62.83,36.85Z"/><path class="cls-2" d="M46,63C57.42,58.37,58,46.6,44.8,40c-9.62-4.81-5.37-12.45,6.5-9.2C64.57,34.27,60.65,57.37,46,63Z"/><path class="cls-2" d="M63.71,24.43c-12.52-4-22.23-3.64-28.6-1.08l-.1,0C25.54,27.25,23.52,36,30.72,42.69c-1.9-1.57-4.06-3.25-5-5.37a16.29,16.29,0,0,1-1.08-8.91,13.13,13.13,0,0,1,7-9.38,20.73,20.73,0,0,1,6.12-1.76A35.09,35.09,0,0,1,63.71,24.43Z"/><path class="cls-2" d="M32.84,56.25c-.82-.27-1.75-.39-2.51-.7C20.66,51.66,15.5,44.43,15.68,37.29c.14-5.07,3.11-10.21,8-14.44a33.32,33.32,0,0,1,4.87-3.2h0a34.79,34.79,0,0,1,7.28-2.08c.65-.12,1.31-.21,2-.29a18.44,18.44,0,0,0-2.24.47c-12.52,3.4-13.26,18-4.84,25h0a23.94,23.94,0,0,0,5.51,3.71C45,50.78,42.28,57.47,32.84,56.25Z"/><path class="cls-2" d="M32.84,56.25a22.56,22.56,0,0,1-3.1-.64C11.2,50.55,8.48,34.8,20,24.79a30.62,30.62,0,0,1,8.54-5.14,30.93,30.93,0,0,0-4.6,3.29C11.67,33.6,14.11,50.18,32.84,56.25Z"/></g></svg>